<?xml version="1.0" encoding="UTF-8" standalone="no"?>
<!-- Created with Inkscape (http://www.inkscape.org/) -->

<svg
   xmlns:dc="http://purl.org/dc/elements/1.1/"
   xmlns:cc="http://creativecommons.org/ns#"
   xmlns:rdf="http://www.w3.org/1999/02/22-rdf-syntax-ns#"
   xmlns:svg="http://www.w3.org/2000/svg"
   xmlns="http://www.w3.org/2000/svg"
   xmlns:sodipodi="http://sodipodi.sourceforge.net/DTD/sodipodi-0.dtd"
   xmlns:inkscape="http://www.inkscape.org/namespaces/inkscape"
   width="280"
   height="280"
   id="svg2"
   version="1.1"
   inkscape:version="0.47 r22583"
   sodipodi:docname="favicon.svg"
   inkscape:export-filename="/home/stv0g/favicon.png"
   inkscape:export-xdpi="90"
   inkscape:export-ydpi="90">
  <defs
     id="defs4">
    <inkscape:perspective
       sodipodi:type="inkscape:persp3d"
       inkscape:vp_x="0 : 526.18109 : 1"
       inkscape:vp_y="0 : 1000 : 0"
       inkscape:vp_z="744.09448 : 526.18109 : 1"
       inkscape:persp3d-origin="372.04724 : 350.78739 : 1"
       id="perspective10" />
    <inkscape:perspective
       id="perspective2826"
       inkscape:persp3d-origin="0.5 : 0.33333333 : 1"
       inkscape:vp_z="1 : 0.5 : 1"
       inkscape:vp_y="0 : 1000 : 0"
       inkscape:vp_x="0 : 0.5 : 1"
       sodipodi:type="inkscape:persp3d" />
  </defs>
  <sodipodi:namedview
     id="base"
     pagecolor="#ffffff"
     bordercolor="#666666"
     borderopacity="1.0"
     inkscape:pageopacity="0.0"
     inkscape:pageshadow="2"
     inkscape:zoom="1.5821429"
     inkscape:cx="0.26700777"
     inkscape:cy="176.44608"
     inkscape:document-units="px"
     inkscape:current-layer="layer1"
     showgrid="false"
     inkscape:window-width="2048"
     inkscape:window-height="1129"
     inkscape:window-x="0"
     inkscape:window-y="0"
     inkscape:window-maximized="1" />
  <metadata
     id="metadata7">
    <rdf:RDF>
      <cc:Work
         rdf:about="">
        <dc:format>image/svg+xml</dc:format>
        <dc:type
           rdf:resource="http://purl.org/dc/dcmitype/StillImage" />
      </cc:Work>
    </rdf:RDF>
  </metadata>
  <g
     inkscape:label="Ebene 1"
     inkscape:groupmode="layer"
     id="layer1"
     transform="translate(-151.42857,-200.93361)">
    <rect
       style="fill:#3368ff;fill-opacity:1;stroke:none"
       id="rect2816"
       width="280"
       height="280"
       x="151.42857"
       y="200.93361"
       ry="29.074488" />
    <path
       style="fill:#ffffff;fill-opacity:1;stroke:none"
       d="m 290.4375,242.75 c -36.95557,-0.68348 -75.23817,14.70066 -96.84375,45.40625 -17.14705,23.23044 -26.28879,51.79911 -27.75,80.5625 8.20833,0 16.41667,0 24.625,0 1.99005,-36.1935 18.54527,-74.63265 52,-92 27.9397,-14.23833 62.37048,-14.48911 91.3125,-3.6875 27.59623,11.24907 46.45641,37.74868 53.71875,66.03125 2.83083,9.9557 4.33419,20.20713 4.8125,30.5625 8.25,0 16.5,0 24.75,0 -2.07392,-40.73674 -19.6734,-82.8808 -53.75,-106.5625 -21.28456,-14.36211 -47.2826,-20.77635 -72.875,-20.3125 z"
       id="path2832" />
    <path
       style="fill:#ffffff;fill-opacity:1;stroke:none"
       d="m 338.5,308.125 c -29.65605,39.0314 -59.31369,78.0616 -88.96875,117.09375 8.91331,6.0521 17.79771,12.14684 26.71875,18.1875 26.20253,-42.13644 52.34184,-84.31248 78.5625,-126.4375 -5.04701,-3.45533 -10.10161,-6.89959 -15.15625,-10.34375 l -0.61051,0.79201 L 338.5,308.125 z"
       id="path2834" />
  </g>
</svg>
