<?xml version="1.0" encoding="UTF-8" standalone="no"?>
<!-- Created with Inkscape (http://www.inkscape.org/) -->

<svg
   xmlns:dc="http://purl.org/dc/elements/1.1/"
   xmlns:cc="http://creativecommons.org/ns#"
   xmlns:rdf="http://www.w3.org/1999/02/22-rdf-syntax-ns#"
   xmlns:svg="http://www.w3.org/2000/svg"
   xmlns="http://www.w3.org/2000/svg"
   xmlns:sodipodi="http://sodipodi.sourceforge.net/DTD/sodipodi-0.dtd"
   xmlns:inkscape="http://www.inkscape.org/namespaces/inkscape"
   width="2801.417"
   height="280"
   id="svg2"
   version="1.1"
   inkscape:version="0.47 r22583"
   sodipodi:docname="logo_inverted.svg"
   inkscape:export-filename="/home/stv0g/Desktop/logo_2.png"
   inkscape:export-xdpi="90"
   inkscape:export-ydpi="90">
  <defs
     id="defs4">
    <inkscape:perspective
       sodipodi:type="inkscape:persp3d"
       inkscape:vp_x="0 : 526.18109 : 1"
       inkscape:vp_y="0 : 1000 : 0"
       inkscape:vp_z="744.09448 : 526.18109 : 1"
       inkscape:persp3d-origin="372.04724 : 350.78739 : 1"
       id="perspective10" />
    <inkscape:perspective
       id="perspective2826"
       inkscape:persp3d-origin="0.5 : 0.33333333 : 1"
       inkscape:vp_z="1 : 0.5 : 1"
       inkscape:vp_y="0 : 1000 : 0"
       inkscape:vp_x="0 : 0.5 : 1"
       sodipodi:type="inkscape:persp3d" />
    <inkscape:perspective
       id="perspective3600"
       inkscape:persp3d-origin="0.5 : 0.33333333 : 1"
       inkscape:vp_z="1 : 0.5 : 1"
       inkscape:vp_y="0 : 1000 : 0"
       inkscape:vp_x="0 : 0.5 : 1"
       sodipodi:type="inkscape:persp3d" />
  </defs>
  <sodipodi:namedview
     id="base"
     pagecolor="#ffffff"
     bordercolor="#666666"
     borderopacity="1.0"
     inkscape:pageopacity="0.0"
     inkscape:pageshadow="2"
     inkscape:zoom="0.2"
     inkscape:cx="1600.2848"
     inkscape:cy="-268.53796"
     inkscape:document-units="px"
     inkscape:current-layer="layer1"
     showgrid="false"
     inkscape:window-width="1440"
     inkscape:window-height="852"
     inkscape:window-x="0"
     inkscape:window-y="0"
     inkscape:window-maximized="1"
     inkscape:snap-bbox="true"
     inkscape:bbox-paths="true"
     inkscape:bbox-nodes="true"
     inkscape:snap-bbox-edge-midpoints="true"
     inkscape:snap-bbox-midpoints="false"
     inkscape:snap-global="true" />
  <metadata
     id="metadata7">
    <rdf:RDF>
      <cc:Work
         rdf:about="">
        <dc:format>image/svg+xml</dc:format>
        <dc:type
           rdf:resource="http://purl.org/dc/dcmitype/StillImage" />
        <dc:title />
      </cc:Work>
    </rdf:RDF>
  </metadata>
  <g
     inkscape:label="Ebene 1"
     inkscape:groupmode="layer"
     id="layer1"
     transform="translate(-150.75925,-203.44338)">
    <g
       id="g3668"
       transform="translate(1985.5727,2.5097738)">
      <path
         style="fill:#ffffff;fill-opacity:1;stroke:none"
         d="M 2015.3125 0 C 1999.2052 0 1986.25 12.955234 1986.25 29.0625 L 1986.25 250.9375 C 1986.25 267.04477 1999.2052 280 2015.3125 280 L 2237.1562 280 C 2253.2636 280 2266.25 267.04477 2266.25 250.9375 L 2266.25 29.0625 C 2266.25 12.955234 2253.2636 0 2237.1562 0 L 2015.3125 0 z M 2121.7812 41.8125 C 2122.9383 41.802499 2124.0951 41.791141 2125.25 41.8125 C 2150.8424 41.34865 2176.8404 47.76289 2198.125 62.125 C 2232.2016 85.8067 2249.8011 127.95076 2251.875 168.6875 L 2227.125 168.6875 C 2226.6467 158.33213 2225.1433 148.0807 2222.3125 138.125 C 2215.0502 109.84243 2196.1899 83.34282 2168.5938 72.09375 C 2139.6516 61.29214 2105.2211 61.54292 2077.2812 75.78125 C 2043.8265 93.1486 2027.2713 131.58775 2025.2812 167.78125 L 2000.6562 167.78125 C 2002.1176 139.01786 2011.2593 110.44919 2028.4062 87.21875 C 2049.3368 57.47271 2085.9172 42.122517 2121.7812 41.8125 z M 2174.4688 105.6875 C 2179.5234 109.13166 2184.578 112.57592 2189.625 116.03125 C 2163.4043 158.15627 2137.265 200.33231 2111.0625 242.46875 C 2102.1415 236.42809 2093.2571 230.33335 2084.3438 224.28125 C 2113.9988 185.2491 2143.6565 146.2189 2173.3125 107.1875 L 2173.8438 106.46875 L 2174.4688 105.6875 z "
         transform="translate(-1834.8134,200.93361)"
         id="rect2816" />
    </g>
    <g
       transform="translate(-196.43156,206.16944)"
       style="font-size:11px;font-style:normal;font-weight:normal;line-height:125%;fill:#ffffff;fill-opacity:1;stroke:none;font-family:Bitstream Vera Sans"
       id="text2828">
      <g
         id="g2854"
         style="fill:#ffffff;fill-opacity:1">
        <path
           id="path3605"
           style="font-size:32px;font-variant:normal;font-stretch:normal;font-family:Courier New;-inkscape-font-specification:Courier New;fill:#ffffff;fill-opacity:1"
           d="m 447.08297,206.27737 -22.55117,0 -54.78982,-124.031489 -13.65775,0 c -3.17624,1.01e-4 -5.45253,-0.635245 -6.82887,-1.905733 -1.37638,-1.270387 -2.06456,-2.91135 -2.06455,-4.923092 -10e-6,-1.905631 0.6882,-3.493742 2.06455,-4.764332 1.37634,-1.270387 3.65263,-1.905631 6.82887,-1.905733 l 50.02549,0 c 3.17615,1.02e-4 5.45243,0.635244 6.82887,1.905733 1.37629,1.27059 2.06446,2.911655 2.06455,4.923092 -9e-5,1.905834 -0.6883,3.493945 -2.06455,4.764332 -1.37644,1.27059 -3.65272,1.905834 -6.82887,1.905733 l -22.07474,0 48.91381,110.691359 5.876,0 47.96095,-110.691359 -22.23355,0 c -3.17636,1.01e-4 -5.45265,-0.635245 -6.82888,-1.905733 -1.37649,-1.270387 -2.06466,-2.91135 -2.06454,-4.923092 -1.2e-4,-1.905631 0.68809,-3.493742 2.06454,-4.764332 1.37623,-1.270387 3.65252,-1.905631 6.82888,-1.905733 l 50.18429,0 c 3.28192,1.02e-4 5.55821,0.635244 6.82888,1.905733 1.37617,1.27059 2.06435,2.911655 2.06454,4.923092 -1.9e-4,1.905834 -0.6884,3.493945 -2.06454,4.764332 -1.27067,1.27059 -3.54696,1.905834 -6.82888,1.905733 l -13.49894,0 -54.15457,124.031489" />
        <path
           id="path3607"
           style="font-size:32px;font-variant:normal;font-stretch:normal;font-family:Courier New;-inkscape-font-specification:Courier New;fill:#ffffff;fill-opacity:1"
           d="m 668.3365,137.82975 c -1.7e-4,20.32792 -7.30548,37.69123 -21.91592,52.09003 -14.50489,14.3989 -32.02703,21.59831 -52.56647,21.59831 -20.75139,0 -38.3794,-7.19941 -52.88408,-21.59831 -14.50478,-14.50471 -21.75714,-31.86802 -21.75711,-52.09003 -3e-5,-20.32771 7.25233,-37.69102 21.75711,-52.090026 14.50468,-14.504608 32.13269,-21.756963 52.88408,-21.757065 20.53944,1.02e-4 38.06158,7.199503 52.56647,21.598305 14.61044,14.398903 21.91575,31.815166 21.91592,52.248786 m -13.49894,0 c -1.6e-4,-16.72796 -5.98204,-30.968 -17.94565,-42.720122 C 625.03388,83.357711 610.63503,77.48165 593.6953,77.481549 576.75537,77.48165 562.30358,83.410665 550.33988,95.268388 538.48195,107.02051 532.553,121.2076 532.55304,137.82975 c -4e-5,16.51645 5.92891,30.70354 17.78684,42.56137 11.9637,11.85792 26.41549,17.78684 43.35542,17.78684 16.93973,0 31.33858,-5.87596 43.19661,-17.62798 11.96361,-11.85793 17.94549,-26.09797 17.94565,-42.72023" />
        <path
           id="path3609"
           style="font-size:32px;font-variant:normal;font-stretch:normal;font-family:Courier New;-inkscape-font-specification:Courier New;fill:#ffffff;fill-opacity:1"
           d="m 740.56068,6.9694371 0,185.9678029 52.40765,0 c 3.28192,0 5.61118,0.63525 6.98768,1.90573 1.3762,1.16459 2.06439,2.7527 2.0646,4.76434 -2.1e-4,1.90573 -0.6881,3.49384 -2.0646,4.76433 -1.3765,1.27049 -3.70576,1.90573 -6.98768,1.90573 l -118.15539,0 c -3.17627,0 -5.45255,-0.63524 -6.82888,-1.90573 -1.3764,-1.27049 -2.06457,-2.8586 -2.06454,-4.76433 -3e-5,-2.01164 0.6882,-3.59975 2.06454,-4.76434 1.37633,-1.27048 3.65261,-1.90573 6.82888,-1.90573 l 52.40761,0 0,-172.468812 -38.43224,0 c -3.17627,1.02e-4 -5.5055,-0.635244 -6.98769,-1.905733 -1.3764,-1.270285 -2.06459,-2.911349 -2.06454,-4.923193 -5e-5,-1.90553 0.6881,-3.49364 2.06454,-4.7643322 1.37632,-1.2702852 3.70554,-1.9055295 6.98769,-1.9057327 l 51.77237,0" />
        <path
           id="path3611"
           style="font-size:32px;font-variant:normal;font-stretch:normal;font-family:Courier New;-inkscape-font-specification:Courier New;fill:#ffffff;fill-opacity:1"
           d="m 857.09832,146.88203 0,59.39534 -31.28583,0 c -3.17622,0 -5.45253,-0.63524 -6.82882,-1.90573 -1.3764,-1.27049 -2.0646,-2.8586 -2.0646,-4.76433 0,-2.01164 0.6881,-3.59975 2.0646,-4.76434 1.37629,-1.27048 3.6526,-1.90573 6.82882,-1.90573 l 17.9457,0 0,-172.468812 -17.9457,0 c -3.17622,1.02e-4 -5.45253,-0.635244 -6.82882,-1.905733 -1.3764,-1.270285 -2.0646,-2.911349 -2.0646,-4.923193 0,-1.90553 0.6881,-3.49364 2.0646,-4.7643322 1.37629,-1.2702852 3.6526,-1.9055295 6.82882,-1.9057327 l 31.28583,0 0,122.9197629 56.6955,-47.643319 -6.82882,0 c -3.17633,1.01e-4 -5.45264,-0.635245 -6.82893,-1.905733 -1.3764,-1.270387 -2.06459,-2.858498 -2.06449,-4.764332 -1e-4,-2.011437 0.68809,-3.652502 2.06449,-4.923092 1.37629,-1.270387 3.6526,-1.905631 6.82893,-1.905733 l 42.72012,0 c 3.28193,1.02e-4 5.61119,0.635244 6.98769,1.905733 1.37619,1.27059 2.06439,2.911655 2.06459,4.923092 -2e-4,1.905834 -0.68809,3.493945 -2.06459,4.764332 -1.3765,1.27059 -3.70576,1.905834 -6.98769,1.905733 l -15.40462,0 -52.09003,43.514229 65.90654,67.17713 15.40472,0 c 3.28193,0 5.61109,0.63525 6.98769,1.90573 1.37619,1.16459 2.06439,2.7527 2.06449,4.76434 -10e-5,1.90573 -0.68809,3.49384 -2.06449,4.76433 -1.3766,1.27049 -3.70576,1.90573 -6.98769,1.90573 l -43.1966,0 c -3.17633,0 -5.45264,-0.63524 -6.82893,-1.90573 -1.3765,-1.27049 -2.0646,-2.8586 -2.06449,-4.76433 -1.1e-4,-2.01164 0.68809,-3.59975 2.06449,-4.76434 1.37629,-1.27048 3.6526,-1.90573 6.82893,-1.90573 l 9.3698,0 -57.33075,-58.91895 -15.24586,12.86374" />
        <path
           id="path3613"
           style="font-size:32px;font-variant:normal;font-stretch:normal;font-family:Courier New;-inkscape-font-specification:Courier New;fill:#ffffff;fill-opacity:1"
           d="m 1104.9378,77.481549 c -2e-4,-3.070212 0.6353,-5.293567 1.9058,-6.670065 1.2703,-1.376193 2.8584,-2.064391 4.7643,-2.064493 2.0114,1.02e-4 3.6525,0.688097 4.9231,2.064493 1.2704,1.376498 1.9056,3.705761 1.9057,6.987687 l 0,22.868789 c -10e-5,3.17633 -0.6352,5.45264 -1.9057,6.82893 -1.2706,1.3764 -2.9117,2.0646 -4.9231,2.06449 -1.8,1.1e-4 -3.3352,-0.58239 -4.6056,-1.74687 -1.1646,-1.16458 -1.8528,-3.07031 -2.0645,-5.7172 -0.6352,-6.352337 -3.9174,-11.593152 -9.8462,-15.722342 -8.6818,-5.928811 -20.1692,-8.893318 -34.4621,-8.893419 -14.9282,1.01e-4 -26.5215,3.017562 -34.7796,9.052281 -6.2466,4.552618 -9.3699,9.634572 -9.3699,15.24586 0,6.35255 3.7056,11.64621 11.1168,15.88111 5.082,2.96451 14.7164,5.24081 28.9036,6.82882 18.5279,2.01175 31.3916,4.28795 38.5912,6.82893 10.2696,3.70566 17.8925,8.84047 22.8688,15.40462 5.0817,6.56426 7.6227,13.65786 7.6229,21.28068 -2e-4,11.32859 -5.4527,21.43955 -16.3576,30.33297 -10.9052,8.78751 -26.8921,13.18127 -47.9609,13.18127 -21.069,0 -38.3265,-5.34663 -51.7725,-16.03987 0,3.59965 -0.2114,5.92891 -0.6352,6.98769 -0.4238,1.05867 -1.2175,1.95868 -2.3821,2.69973 -1.0588,0.74095 -2.2763,1.11173 -3.6527,1.11173 -1.9057,0 -3.49386,-0.6881 -4.76435,-2.06459 -1.27049,-1.3763 -1.90573,-3.65261 -1.90573,-6.82883 l 0,-27.47436 c 0,-3.17612 0.58239,-5.45243 1.74697,-6.82883 1.27049,-1.37639 2.91141,-2.06449 4.92311,-2.06459 1.9057,1e-4 3.4938,0.68809 4.7643,2.06459 1.3764,1.27049 2.0645,3.01746 2.0646,5.24072 -10e-5,4.87024 1.2175,8.94637 3.6526,12.2285 3.7056,5.08195 9.5816,9.31685 17.6281,12.70488 8.1522,3.28203 18.1044,4.9231 29.8565,4.9231 17.3632,0 30.2798,-3.22918 38.7499,-9.68743 8.4698,-6.45835 12.7047,-13.28717 12.7049,-20.48668 -2e-4,-8.25807 -4.2881,-14.87518 -12.8638,-19.85133 -8.6818,-4.97604 -21.3337,-8.31113 -37.9558,-10.00515 -16.5164,-1.69391 -28.3743,-3.91727 -35.5737,-6.67006 -7.1995,-2.75259 -12.8108,-6.88168 -16.8339,-12.38726 -4.0233,-5.50539 -6.035,-11.4343 -6.0348,-17.78684 -2e-4,-11.434297 5.6112,-20.486476 16.8339,-27.156643 11.2226,-6.775871 24.6157,-10.163806 40.1792,-10.163908 18.4219,1.02e-4 33.4031,4.499766 44.9435,13.49889" />
        <path
           id="path3615"
           style="font-size:32px;font-variant:normal;font-stretch:normal;font-family:Courier New;-inkscape-font-specification:Courier New;fill:#ffffff;fill-opacity:1"
           d="m 1257.2674,68.746991 0,11.910779 -99.8922,112.27947 90.2047,0 0,-18.42208 c -10e-5,-3.17622 0.5823,-5.45253 1.7469,-6.82893 1.2703,-1.37629 2.9114,-2.06449 4.9231,-2.06449 2.0115,0 3.6525,0.6881 4.9232,2.06449 1.2703,1.3764 1.9055,3.65271 1.9057,6.82893 l -0.1585,31.76221 -121.9669,0 0,-11.91088 99.4157,-112.120609 -82.8994,0 0,18.104459 c 0,3.17632 -0.6352,5.45263 -1.9057,6.82893 -1.2705,1.37639 -2.8586,2.06459 -4.7643,2.06449 -2.0117,1e-4 -3.6527,-0.6881 -4.9231,-2.06449 -1.2706,-1.3763 -1.9058,-3.65261 -1.9057,-6.82893 l 0,-31.603349 115.2968,0" />
        <path
           id="path3617"
           style="font-size:32px;font-variant:normal;font-stretch:normal;font-family:Courier New;-inkscape-font-specification:Courier New;fill:#ffffff;fill-opacity:1"
           d="m 1393.6215,206.27737 0,-19.21619 c -19.375,16.30464 -40.0734,24.45691 -62.0951,24.45691 -15.9871,0 -28.4801,-4.02318 -37.4794,-12.06965 -8.9994,-8.15226 -13.4989,-18.10446 -13.4989,-29.85647 0,-12.9166 5.9289,-24.19214 17.7868,-33.82671 11.8578,-9.63447 29.1682,-14.45176 51.9312,-14.45186 6.1406,1e-4 12.8107,0.42384 20.0102,1.27049 7.1994,0.74095 14.9811,1.95879 23.3452,3.65271 l 0,-21.59831 c -10e-5,-7.305206 -3.3881,-13.657648 -10.1639,-19.057326 -6.776,-5.399475 -16.94,-8.099314 -30.4917,-8.099415 -10.3757,1.01e-4 -24.9334,3.017562 -43.6731,9.052281 -3.3879,1.058876 -5.5584,1.588212 -6.5112,1.588111 -1.694,1.01e-4 -3.1763,-0.635244 -4.4467,-1.905733 -1.1647,-1.270387 -1.747,-2.858497 -1.747,-4.764332 0,-1.799723 0.5296,-3.229073 1.5881,-4.287949 1.4822,-1.588009 7.4641,-3.75841 17.9457,-6.511203 16.5163,-4.446608 29.0095,-6.669963 37.4795,-6.670065 16.8338,1.02e-4 29.9621,4.182144 39.3851,12.546023 9.4226,8.258277 14.134,17.628181 14.1341,28.109608 l 0,88.29895 17.7869,0 c 3.2819,0 5.6112,0.63525 6.9877,1.90573 1.3761,1.16459 2.0643,2.7527 2.0645,4.76434 -2e-4,1.90573 -0.688,3.49384 -2.0645,4.76433 -1.3765,1.27049 -3.7058,1.90573 -6.9877,1.90573 l -31.2858,0 m 0,-66.38302 c -6.2467,-1.79983 -12.8638,-3.12327 -19.8514,-3.97033 -6.9878,-0.84665 -14.3459,-1.27039 -22.0747,-1.27049 -19.375,1e-4 -34.515,4.18214 -45.4199,12.54613 -8.2583,6.24663 -12.3873,13.7107 -12.3873,22.39231 0,8.04646 3.1233,14.82243 9.3698,20.32781 6.3524,5.50549 15.5635,8.25818 27.6331,8.25818 11.5402,0 22.2335,-2.27631 32.0799,-6.82883 9.952,-4.65842 20.1689,-12.01669 30.6505,-22.07479 l 0,-29.37999" />
        <path
           id="path3619"
           style="font-size:32px;font-variant:normal;font-stretch:normal;font-family:Courier New;-inkscape-font-specification:Courier New;fill:#ffffff;fill-opacity:1"
           d="m 1595.8126,140.68835 -135.9423,0 c 2.3293,17.2575 9.5287,31.17992 21.5983,41.76736 12.1755,10.48153 27.2096,15.72225 45.1024,15.72225 9.9521,0 20.3806,-1.64107 31.2858,-4.9231 10.9049,-3.28212 19.7983,-7.62293 26.6803,-13.0225 2.0114,-1.58811 3.7583,-2.38222 5.2407,-2.38222 1.6938,0 3.1761,0.6881 4.4467,2.06459 1.2704,1.27049 1.9056,2.80565 1.9057,4.60547 -10e-5,1.79993 -0.8466,3.5468 -2.541,5.24082 -5.082,5.29367 -14.1343,10.26972 -27.1566,14.92824 -12.9168,4.55252 -26.204,6.82883 -39.8616,6.82883 -22.8688,0 -41.9791,-7.46407 -57.3308,-22.39231 -15.2458,-15.03415 -22.8688,-33.19146 -22.8688,-54.47225 0,-19.37485 7.1465,-35.997003 21.4395,-49.866672 14.3988,-13.869364 32.1856,-20.804097 53.3605,-20.804199 21.81,1.02e-4 39.7556,7.146651 53.837,21.439443 14.0811,14.187291 21.0158,32.609268 20.8042,55.266248 m -13.4989,-13.49889 c -2.647,-14.71642 -9.6347,-26.68015 -20.9631,-35.891298 -11.2227,-9.21094 -24.6158,-13.816512 -40.1792,-13.816613 -15.5635,1.01e-4 -28.9566,4.552719 -40.1792,13.657751 -11.2226,9.10534 -18.2103,21.12202 -20.963,36.05016 l 122.2845,0" />
        <path
           id="path3621"
           style="font-size:32px;font-variant:normal;font-stretch:normal;font-family:Courier New;-inkscape-font-specification:Courier New;fill:#ffffff;fill-opacity:1"
           d="m 1662.7417,6.9694371 0,82.1053699 c 8.4699,-9.21094 16.5692,-15.66929 24.2981,-19.374949 7.8346,-3.811364 16.5692,-5.717097 26.2039,-5.717199 10.3755,1.02e-4 19.163,1.852881 26.3626,5.558337 7.3052,3.599853 13.3929,9.211143 18.2632,16.833972 4.8702,7.517227 7.3052,15.457782 7.3053,23.821662 l 0,82.74061 14.9283,0 c 3.2819,0 5.5582,0.63525 6.8289,1.90573 1.3762,1.16459 2.0644,2.7527 2.0645,4.76434 -10e-5,1.90573 -0.6881,3.49384 -2.0645,4.76433 -1.2707,1.27049 -3.547,1.90573 -6.8289,1.90573 l -43.3554,0 c -3.2822,0 -5.6115,-0.63524 -6.9877,-1.90573 -1.3765,-1.27049 -2.0647,-2.8586 -2.0646,-4.76433 -10e-5,-2.01164 0.6881,-3.59975 2.0646,-4.76434 1.3762,-1.27048 3.7055,-1.90573 6.9877,-1.90573 l 14.9282,0 0,-81.78775 c -2e-4,-9.63436 -3.494,-17.680825 -10.4815,-24.139277 -6.882,-6.458148 -16.5164,-9.687323 -28.9036,-9.687424 -9.7405,1.01e-4 -18.0516,2.382216 -24.9334,7.146447 -4.9761,3.388138 -13.1814,11.381544 -24.6157,23.980524 l 0,84.48748 15.087,0 c 3.1763,0 5.4525,0.63525 6.829,1.90573 1.3763,1.16459 2.0645,2.7527 2.0645,4.76434 0,1.90573 -0.6881,3.49384 -2.0645,4.76433 -1.3765,1.27049 -3.6527,1.90573 -6.829,1.90573 l -43.5142,0 c -3.1762,0 -5.4525,-0.63524 -6.8288,-1.90573 -1.3764,-1.27049 -2.0646,-2.8586 -2.0646,-4.76433 0,-2.01164 0.6881,-3.59975 2.0646,-4.76434 1.3763,-1.27048 3.6526,-1.90573 6.8288,-1.90573 l 15.0871,0 0,-172.468812 -17.9457,0 c -3.1762,1.02e-4 -5.4525,-0.635244 -6.8288,-1.905733 -1.3764,-1.270285 -2.0646,-2.911349 -2.0646,-4.923193 0,-1.90553 0.6881,-3.49364 2.0646,-4.7643322 1.3763,-1.2702852 3.6526,-1.9055295 6.8288,-1.9057327 l 31.2858,0" />
        <path
           id="path3623"
           style="font-size:32px;font-variant:normal;font-stretch:normal;font-family:Courier New;-inkscape-font-specification:Courier New;fill:#ffffff;fill-opacity:1"
           d="m 1871.7668,6.9694371 0,185.9678029 52.4076,0 c 3.282,0 5.6112,0.63525 6.9877,1.90573 1.3762,1.16459 2.0644,2.7527 2.0646,4.76434 -2e-4,1.90573 -0.6881,3.49384 -2.0646,4.76433 -1.3765,1.27049 -3.7057,1.90573 -6.9877,1.90573 l -118.1554,0 c -3.1762,0 -5.4525,-0.63524 -6.8288,-1.90573 -1.3764,-1.27049 -2.0646,-2.8586 -2.0646,-4.76433 0,-2.01164 0.6881,-3.59975 2.0646,-4.76434 1.3763,-1.27048 3.6526,-1.90573 6.8288,-1.90573 l 52.4076,0 0,-172.468812 -38.4322,0 c -3.1763,1.02e-4 -5.5055,-0.635244 -6.9877,-1.905733 -1.3764,-1.270285 -2.0646,-2.911349 -2.0645,-4.923193 -10e-5,-1.90553 0.6881,-3.49364 2.0645,-4.7643322 1.3764,-1.2702852 3.7055,-1.9055295 6.9877,-1.9057327 l 51.7724,0" />
        <path
           id="path3625"
           style="font-size:32px;font-variant:normal;font-stretch:normal;font-family:Courier New;-inkscape-font-specification:Courier New;fill:#ffffff;fill-opacity:1"
           d="m 2091.5613,140.68835 -135.9423,0 c 2.3293,17.2575 9.5287,31.17992 21.5983,41.76736 12.1755,10.48153 27.2096,15.72225 45.1024,15.72225 9.9521,0 20.3806,-1.64107 31.2858,-4.9231 10.9049,-3.28212 19.7983,-7.62293 26.6803,-13.0225 2.0114,-1.58811 3.7583,-2.38222 5.2407,-2.38222 1.6938,0 3.1761,0.6881 4.4467,2.06459 1.2704,1.27049 1.9056,2.80565 1.9057,4.60547 -1e-4,1.79993 -0.8466,3.5468 -2.541,5.24082 -5.082,5.29367 -14.1343,10.26972 -27.1566,14.92824 -12.9168,4.55252 -26.204,6.82883 -39.8616,6.82883 -22.8688,0 -41.9791,-7.46407 -57.3308,-22.39231 -15.2458,-15.03415 -22.8688,-33.19146 -22.8688,-54.47225 0,-19.37485 7.1465,-35.997003 21.4395,-49.866672 14.3988,-13.869364 32.1856,-20.804097 53.3605,-20.804199 21.81,1.02e-4 39.7556,7.146651 53.837,21.439443 14.0811,14.187291 21.0158,32.609268 20.8042,55.266248 m -13.4989,-13.49889 c -2.647,-14.71642 -9.6347,-26.68015 -20.9631,-35.891298 -11.2227,-9.21094 -24.6158,-13.816512 -40.1792,-13.816613 -15.5635,1.01e-4 -28.9566,4.552719 -40.1792,13.657751 -11.2226,9.10534 -18.2103,21.12202 -20.963,36.05016 l 122.2845,0" />
        <path
           id="path3627"
           style="font-size:32px;font-variant:normal;font-stretch:normal;font-family:Courier New;-inkscape-font-specification:Courier New;fill:#ffffff;fill-opacity:1"
           d="m 2159.7856,68.746991 0,33.667949 c 17.3632,-15.669294 30.3327,-25.727294 38.9086,-30.174105 8.6816,-4.552516 16.6751,-6.828724 23.9805,-6.828927 7.9404,2.03e-4 15.2986,2.699941 22.0747,8.099415 6.8817,5.29377 10.3226,9.317051 10.3228,12.069641 -2e-4,2.011742 -0.6881,3.705659 -2.0646,5.081954 -1.2706,1.27059 -2.9117,1.905834 -4.9231,1.905733 -1.0589,1.01e-4 -1.9589,-0.158557 -2.6998,-0.476688 -0.741,-0.423835 -2.1177,-1.640963 -4.1291,-3.652603 -3.7058,-3.705456 -6.9349,-6.246433 -9.6874,-7.622931 -2.7529,-1.376295 -5.4527,-2.064493 -8.0995,-2.064595 -5.8232,1.02e-4 -12.8637,2.329364 -21.1218,6.987687 -8.1525,4.658627 -22.3395,16.040069 -42.5613,34.144429 l 0,73.05309 59.0777,0 c 3.2819,0 5.6112,0.63524 6.9877,1.90573 1.3761,1.16458 2.0643,2.75269 2.0644,4.76433 -10e-5,1.90574 -0.6881,3.49385 -2.0644,4.76434 -1.3765,1.27048 -3.7058,1.90573 -6.9877,1.90573 l -104.6566,0 c -3.1762,0 -5.4525,-0.58239 -6.8288,-1.74697 -1.3764,-1.27049 -2.0646,-2.8586 -2.0646,-4.76434 0,-1.79982 0.6353,-3.28202 1.9057,-4.44671 1.3764,-1.27048 3.7056,-1.90573 6.9877,-1.90573 l 32.2387,0 0,-111.167743 -24.6157,0 c -3.1763,1.02e-4 -5.4526,-0.635244 -6.8289,-1.905732 -1.3764,-1.270387 -2.0646,-2.91135 -2.0646,-4.923092 0,-1.905632 0.6353,-3.493742 1.9058,-4.764332 1.3764,-1.270387 3.7055,-1.905631 6.9877,-1.905733 l 37.9559,0" />
        <path
           id="path3631"
           style="font-size:32px;font-variant:normal;font-stretch:normal;font-family:Courier New;-inkscape-font-specification:Courier New;fill:#ffffff;fill-opacity:1"
           d="m 2819.3975,137.82975 c -2e-4,20.32792 -7.3055,37.69123 -21.9159,52.09003 -14.505,14.3989 -32.027,21.59831 -52.5666,21.59831 -20.7513,0 -38.3793,-7.19941 -52.884,-21.59831 -14.5048,-14.50471 -21.7572,-31.86802 -21.7572,-52.09003 0,-20.32771 7.2524,-37.69102 21.7572,-52.090026 14.5047,-14.504608 32.1327,-21.756963 52.884,-21.757065 20.5396,1.02e-4 38.0616,7.199503 52.5666,21.598305 14.6104,14.398903 21.9157,31.815166 21.9159,52.248786 m -13.499,0 c -10e-5,-16.72796 -5.982,-30.968 -17.9456,-42.720122 -11.858,-11.751917 -26.2569,-17.627978 -43.1966,-17.628079 -16.94,1.01e-4 -31.3918,5.929116 -43.3555,17.786839 -11.8579,11.752122 -17.7868,25.939212 -17.7868,42.561362 0,16.51645 5.9289,30.70354 17.7868,42.56137 11.9637,11.85792 26.4155,17.78684 43.3555,17.78684 16.9397,0 31.3386,-5.87596 43.1966,-17.62798 11.9636,-11.85793 17.9455,-26.09797 17.9456,-42.72023" />
        <path
           id="path3633"
           style="font-size:32px;font-variant:normal;font-stretch:normal;font-family:Courier New;-inkscape-font-specification:Courier New;fill:#ffffff;fill-opacity:1"
           d="m 2885.2395,68.746991 0,33.667949 c 17.3632,-15.669294 30.3328,-25.727294 38.9087,-30.174105 8.6816,-4.552516 16.6751,-6.828724 23.9805,-6.828927 7.9404,2.03e-4 15.2986,2.699941 22.0747,8.099415 6.8817,5.29377 10.3226,9.317051 10.3228,12.069641 -2e-4,2.011742 -0.6881,3.705659 -2.0646,5.081954 -1.2706,1.27059 -2.9117,1.905834 -4.9231,1.905733 -1.0589,1.01e-4 -1.9589,-0.158557 -2.6999,-0.476688 -0.7409,-0.423835 -2.1176,-1.640963 -4.129,-3.652603 -3.7058,-3.705456 -6.9349,-6.246433 -9.6875,-7.622931 -2.7529,-1.376295 -5.4526,-2.064493 -8.0994,-2.064595 -5.8232,1.02e-4 -12.8637,2.329364 -21.1218,6.987687 -8.1525,4.658627 -22.3396,16.040069 -42.5614,34.144429 l 0,73.05309 59.0777,0 c 3.282,0 5.6112,0.63524 6.9877,1.90573 1.3762,1.16458 2.0644,2.75269 2.0645,4.76433 -1e-4,1.90574 -0.6881,3.49385 -2.0645,4.76434 -1.3765,1.27048 -3.7057,1.90573 -6.9877,1.90573 l -104.6565,0 c -3.1762,0 -5.4525,-0.58239 -6.8288,-1.74697 -1.3764,-1.27049 -2.0646,-2.8586 -2.0646,-4.76434 0,-1.79982 0.6352,-3.28202 1.9057,-4.44671 1.3764,-1.27048 3.7056,-1.90573 6.9877,-1.90573 l 32.2387,0 0,-111.167743 -24.6158,0 c -3.1762,1.02e-4 -5.4525,-0.635244 -6.8288,-1.905732 -1.3764,-1.270387 -2.0646,-2.91135 -2.0646,-4.923092 0,-1.905632 0.6353,-3.493742 1.9057,-4.764332 1.3764,-1.270387 3.7056,-1.905631 6.9877,-1.905733 l 37.9559,0" />
        <path
           id="path3635"
           style="font-size:32px;font-variant:normal;font-stretch:normal;font-family:Courier New;-inkscape-font-specification:Courier New;fill:#ffffff;fill-opacity:1"
           d="m 3108.4285,93.203895 0,-24.456904 31.2858,0 c 3.176,1.02e-4 5.4523,0.635244 6.8288,1.905733 1.3762,1.27059 2.0644,2.911655 2.0646,4.923092 -2e-4,1.905834 -0.6881,3.493945 -2.0646,4.764332 -1.3765,1.27059 -3.6528,1.905834 -6.8288,1.905733 l -17.9457,0 0,133.242529 c -10e-5,8.89332 -1.9058,16.83387 -5.7172,23.82166 -2.5411,4.65843 -6.7761,9.47561 -12.7049,14.45176 -5.929,4.97604 -11.3286,8.52284 -16.1987,10.64039 -4.8703,2.11735 -11.3816,3.17612 -19.5337,3.17622 l -37.7971,0 c -3.1763,-10e-5 -5.4526,-0.63524 -6.8289,-1.90573 -1.3764,-1.16468 -2.0646,-2.75279 -2.0645,-4.76433 -1e-4,-2.01175 0.6881,-3.65271 2.0645,-4.9232 1.3763,-1.27049 3.6526,-1.90573 6.8289,-1.90573 l 38.2735,0.15856 c 7.8346,-1e-4 14.8751,-2.01164 21.1219,-6.03482 6.3523,-4.02328 11.593,-9.89924 15.7222,-17.62808 2.3292,-4.44671 3.4938,-10.11096 3.4939,-16.99273 l 0,-40.02039 c -14.2931,19.58666 -32.7152,29.37999 -55.2663,29.37999 -18.3163,0 -34.1444,-6.77587 -47.4844,-20.32781 -13.2344,-13.65765 -19.8515,-30.0682 -19.8515,-49.23143 0,-19.16314 6.6171,-35.520625 19.8515,-49.07257 13.34,-13.551741 29.1681,-20.327714 47.4844,-20.327816 22.5511,1.02e-4 40.9732,9.74048 55.2663,29.221236 m 0,40.17915 c -1e-4,-15.66929 -5.3997,-28.90351 -16.1988,-39.702768 -10.6933,-10.79905 -23.5041,-16.198626 -38.4322,-16.198728 -14.9283,1.02e-4 -27.7391,5.452632 -38.4323,16.35759 -10.6933,10.799256 -16.0399,23.980526 -16.0399,39.543906 0,15.66939 5.3466,28.95657 16.0399,39.86163 10.6932,10.79915 23.504,16.19872 38.4323,16.19872 14.9281,0 27.7389,-5.39957 38.4322,-16.19872 10.7991,-10.90506 16.1987,-24.19224 16.1988,-39.86163" />
      </g>
    </g>
  </g>
</svg>
